<svg width="32" height="32" viewBox="0 0 32 32" fill="none" xmlns="http://www.w3.org/2000/svg">
<path d="M25.9238 7.21933C25.3504 6.62141 24.6696 6.1471 23.9203 5.82349C23.171 5.49988 22.3679 5.33331 21.5568 5.33331C20.7457 5.33331 19.9425 5.49988 19.1932 5.82349C18.4439 6.1471 17.7631 6.62141 17.1897 7.21933L15.9997 8.45966L14.8097 7.21933C13.6515 6.01214 12.0806 5.33394 10.4426 5.33394C8.80466 5.33394 7.23378 6.01214 6.07556 7.21933C4.91734 8.42653 4.26666 10.0638 4.26666 11.7711C4.26666 13.4783 4.91734 15.1156 6.07556 16.3228L7.26556 17.5632L15.9997 26.6666L24.7338 17.5632L25.9238 16.3228C26.4975 15.7252 26.9526 15.0156 27.263 14.2346C27.5735 13.4536 27.7333 12.6165 27.7333 11.7711C27.7333 10.9257 27.5735 10.0886 27.263 9.30757C26.9526 8.52657 26.4975 7.81698 25.9238 7.21933V7.21933Z" stroke="black" stroke-width="2" stroke-linecap="round" stroke-linejoin="round"/>
</svg>
