<svg width="18" height="17" viewBox="0 0 18 17" fill="none" xmlns="http://www.w3.org/2000/svg">
<path d="M6.81809 16.1666C7.21975 16.1666 7.54537 15.8468 7.54537 15.4523C7.54537 15.0578 7.21975 14.738 6.81809 14.738C6.41643 14.738 6.09082 15.0578 6.09082 15.4523C6.09082 15.8468 6.41643 16.1666 6.81809 16.1666Z" fill="#000000" stroke="#000000" stroke-width="1.5" stroke-linecap="round" stroke-linejoin="round"/>
<path d="M14.8181 16.1666C15.2198 16.1666 15.5454 15.8468 15.5454 15.4523C15.5454 15.0578 15.2198 14.738 14.8181 14.738C14.4164 14.738 14.0908 15.0578 14.0908 15.4523C14.0908 15.8468 14.4164 16.1666 14.8181 16.1666Z" fill="#000000" stroke="#000000" stroke-width="1.5" stroke-linecap="round" stroke-linejoin="round"/>
<path d="M1 1.16663H3.90909L5.85818 10.7309C5.92469 11.0598 6.10684 11.3552 6.37276 11.5654C6.63868 11.7757 6.97142 11.8873 7.31273 11.8809H14.3818C14.7231 11.8873 15.0559 11.7757 15.3218 11.5654C15.5877 11.3552 15.7699 11.0598 15.8364 10.7309L17 4.73806H4.63636" stroke="#000000" stroke-width="2" stroke-linecap="round" stroke-linejoin="round"/>
</svg>
