<svg width="18" height="18" viewBox="0 0 18 18" fill="none" xmlns="http://www.w3.org/2000/svg">
<path d="M15.7663 2.35558C15.3753 1.92582 14.9111 1.58491 14.4002 1.35231C13.8893 1.11972 13.3417 1 12.7887 1C12.2357 1 11.6881 1.11972 11.1772 1.35231C10.6663 1.58491 10.2021 1.92582 9.81116 2.35558L8.9998 3.24706L8.18843 2.35558C7.39874 1.4879 6.32768 1.00045 5.21089 1.00045C4.09409 1.00045 3.02303 1.4879 2.23334 2.35558C1.44365 3.22325 1 4.40007 1 5.62715C1 6.85422 1.44365 8.03104 2.23334 8.89872L3.0447 9.7902L8.9998 16.3333L14.9549 9.7902L15.7663 8.89872C16.1574 8.46916 16.4677 7.95914 16.6793 7.39779C16.891 6.83645 17 6.23477 17 5.62715C17 5.01952 16.891 4.41785 16.6793 3.8565C16.4677 3.29515 16.1574 2.78513 15.7663 2.35558Z" stroke="#BFC2C8" stroke-width="2" stroke-linecap="round" stroke-linejoin="round"/>
</svg>
