<svg width="13" height="13" viewBox="0 0 13 13" fill="none" xmlns="http://www.w3.org/2000/svg">
<path d="M6.02229 1.54591C6.16748 1.07607 6.83252 1.07607 6.97771 1.54591L7.92555 4.61318C7.99029 4.82268 8.18398 4.96556 8.40326 4.96556H11.5219C12.0001 4.96556 12.2054 5.57255 11.8254 5.86289L9.25993 7.82272C9.09342 7.94992 9.02388 8.16746 9.08575 8.36767L10.0554 11.5054C10.1991 11.9705 9.66097 12.3459 9.27412 12.0504L6.80353 10.163C6.62433 10.0261 6.37567 10.0261 6.19647 10.163L3.72588 12.0504C3.33903 12.3459 2.80091 11.9705 2.94463 11.5054L3.91425 8.36767C3.97611 8.16746 3.90658 7.94992 3.74007 7.82272L1.17462 5.86289C0.794561 5.57255 0.999881 4.96556 1.47815 4.96556H4.59674C4.81602 4.96556 5.00971 4.82268 5.07445 4.61318L6.02229 1.54591Z" fill="#FFBB56"/>
</svg>
